<svg width="23" height="47" viewBox="0 0 23 47" fill="none" xmlns="http://www.w3.org/2000/svg">
<circle cx="11.5" cy="7.5" r="1.5" transform="rotate(91.0717 11.5 7.5)" fill="#C08D5D"/>
<circle cx="11.5" cy="1.5" r="1.5" fill="#C08D5D" fill-opacity="0.31"/>
<path d="M11.0596 20C10.4744 20 10 20.4744 10 21.0596V24.7683C10 25.3535 10.4744 25.8279 11.0596 25.8279C11.6449 25.8279 12.1192 25.3535 12.1192 24.7683V21.0596C12.1192 20.4744 11.6449 20 11.0596 20Z" fill="#C08D5D"/>
<path d="M11.2671 15C5.05431 15 0 20.1337 0 26.4437V35.5566C0 41.8666 5.05431 47 11.2671 47C17.4796 47 22.5342 41.8821 22.5342 35.5916V26.4437C22.5342 20.1337 17.4796 15 11.2671 15ZM20.415 35.5916C20.415 40.7138 16.3115 44.8808 11.2671 44.8808C6.22306 44.8808 2.11925 40.6979 2.11925 35.5563V26.4437C2.11925 21.3021 6.22306 17.1192 11.2671 17.1192C16.3116 17.1192 20.415 21.3021 20.415 26.4437V35.5916Z" fill="#C08D5D"/>
</svg>
